<svg width="100%" height="100%" viewBox="0 0 1500 360" version="1.1" xmlns="http://www.w3.org/2000/svg" xmlns:xlink="http://www.w3.org/1999/xlink" xml:space="preserve" xmlns:serif="http://www.serif.com/" style="fill-rule:evenodd;clip-rule:evenodd;stroke-linejoin:round;stroke-miterlimit:2;"><g transform="matrix(1.42325,0,0,1.42325,-384.401,-1597.57)"><g id="Layer_1"><g><path d="M273.6,1342.2L410.3,1156.7L275.6,1156.7L275.6,1130.6L444.4,1130.6L444.4,1154.7L307.7,1341.2L446.1,1341.2L446.1,1367.3L273.6,1367.3L273.6,1342.2Z" style="fill-rule:nonzero;"/><path d="M685.4,1367.3L653.6,1367.3L580.7,1172.7L580,1172.7L504.8,1367.3L475,1367.3L567.6,1130.6L594.7,1130.6L685.3,1367.3L685.4,1367.3Z" style="fill-rule:nonzero;"/><g><path d="M720.1,1130.6L748.3,1130.6L748.3,1232.9L752.3,1232.9L859.9,1130.6L900.3,1130.6L783.3,1238.6L906,1367.3L864.9,1367.3L752.2,1247L748.2,1247L748.2,1367.3L720.1,1367.3L720.1,1130.6Z" style="fill-rule:nonzero;"/><rect x="935.2" y="1130.6" width="28.1" height="236.7" style="fill-rule:nonzero;"/></g><path d="M1209.1,1367.3L1177.3,1367.3L1104.4,1172.7L1103.7,1172.7L1028.5,1367.3L998.7,1367.3L1091.3,1130.6L1118.4,1130.6L1209,1367.3L1209.1,1367.3Z" style="fill-rule:nonzero;"/><path d="M1320.5,1367.3L1288.7,1367.3L1215.8,1172.7L1215.1,1172.7L1139.9,1367.3L1110.1,1367.3L1202.7,1130.6L1229.8,1130.6L1320.4,1367.3L1320.5,1367.3Z" style="fill-rule:nonzero;"/></g></g></g></svg>