<?xml version="1.0" encoding="UTF-8" standalone="no"?>
<!DOCTYPE svg PUBLIC "-//W3C//DTD SVG 1.1//EN" "http://www.w3.org/Graphics/SVG/1.1/DTD/svg11.dtd">
<svg width="100%" height="100%" viewBox="0 0 2020 440" version="1.1" xmlns="http://www.w3.org/2000/svg" xmlns:xlink="http://www.w3.org/1999/xlink" xml:space="preserve" xmlns:serif="http://www.serif.com/" style="fill-rule:evenodd;clip-rule:evenodd;stroke-linejoin:round;stroke-miterlimit:2;">
    <g id="ZAKIM" transform="matrix(1,0,0,1,-35.5508,431.754)">
        <path d="M39.551,0L39.551,-57.715L252.1,-344.531L252.1,-349.805L44.385,-349.805L44.385,-422.754L359.912,-422.754L359.912,-365.186L147.949,-78.223L147.949,-72.949L365.771,-72.949L365.771,0L39.551,0Z" style="fill-rule:nonzero;"/>
        <path d="M450.293,0L597.217,-422.754L672.51,-422.754L672.51,-338.232L646.582,-338.232L543.311,0L450.293,0ZM528.955,-102.539L550.635,-168.75L746.045,-168.75L767.725,-102.539L528.955,-102.539ZM755.127,0L651.855,-338.232L651.855,-422.754L701.221,-422.754L848.145,0L755.127,0Z" style="fill-rule:nonzero;"/>
        <path d="M1027,-122.461L1023.78,-232.91L1037.84,-232.91L1193.99,-422.754L1292.29,-422.754L1132.62,-230.859L1080.03,-186.182L1027,-122.461ZM944.092,0L944.092,-422.754L1032.57,-422.754L1032.57,0L944.092,0ZM1197.07,0L1069.63,-186.768L1133.2,-244.922L1303.27,0L1197.07,0Z" style="fill-rule:nonzero;"/>
        <rect x="1393.65" y="-422.754" width="88.477" height="422.754" style="fill-rule:nonzero;"/>
        <path d="M1608.69,0L1608.69,-422.754L1709.91,-422.754L1826.95,-113.232L1832.08,-113.232L1948.83,-422.754L2050.05,-422.754L2050.05,0L1971.24,0L1971.24,-287.695L1927.73,-287.695L2011.96,-411.035L1857.13,0L1801.61,0L1646.92,-411.035L1731.01,-287.695L1687.5,-287.695L1687.5,0L1608.69,0Z" style="fill-rule:nonzero;"/>
    </g>
</svg>
