<?xml version="1.0" encoding="UTF-8" standalone="no"?>
<!DOCTYPE svg PUBLIC "-//W3C//DTD SVG 1.1//EN" "http://www.w3.org/Graphics/SVG/1.1/DTD/svg11.dtd">
<svg width="100%" height="100%" viewBox="0 0 360 360" version="1.1" xmlns="http://www.w3.org/2000/svg" xmlns:xlink="http://www.w3.org/1999/xlink" xml:space="preserve" xmlns:serif="http://www.serif.com/" style="fill-rule:evenodd;clip-rule:evenodd;stroke-linejoin:round;stroke-miterlimit:2;">
    <g transform="matrix(1.42325,0,0,1.42325,-954.401,-1102.92)">
        <g id="Layer_1">
            <g>
                <circle cx="797.1" cy="901.4" r="118.7" style="fill:none;stroke:black;stroke-width:1.41px;"/>
                <g>
                    <path d="M879.1,961.7L862.9,961.7L825.7,862.4L825.4,862.4L787,961.7L771.8,961.7L819,840.9L832.8,840.9L879,961.7L879.1,961.7Z" style="stroke:black;stroke-width:0.7px;"/>
                    <path d="M812.5,858.9L735.4,1002.9" style="fill:none;stroke:black;stroke-width:0.7px;"/>
                    <path d="M813.3,856.7L721.6,993" style="fill:none;stroke:black;stroke-width:0.7px;"/>
                    <path d="M816.2,851.3L707.8,979.6" style="fill:none;stroke:black;stroke-width:0.7px;"/>
                    <path d="M813,858.6L735.4,1002.9" style="fill:none;stroke:black;stroke-width:0.7px;"/>
                    <path d="M821.2,843.7L696.8,965" style="fill:none;stroke:black;stroke-width:0.7px;"/>
                    <path d="M837.8,858L897.3,965" style="fill:none;stroke:black;stroke-width:0.7px;"/>
                    <path d="M837.4,855L903.3,954.4" style="fill:none;stroke:black;stroke-width:0.7px;"/>
                    <path d="M836.8,852.9L909.7,939.1" style="fill:none;stroke:black;stroke-width:0.7px;"/>
                    <path d="M832.3,845.7L913.1,925.4" style="fill:none;stroke:black;stroke-width:0.7px;"/>
                </g>
                <g>
                    <path d="M760.7,840.6L774.6,840.6L821.8,961.4L806.6,961.4L768.2,862.1L767.9,862.1L730.7,961.4L714.5,961.4L760.7,840.6Z" style="stroke:black;stroke-width:0.7px;"/>
                    <path d="M781.2,858.6L858.3,1002.5" style="fill:none;stroke:black;stroke-width:0.7px;"/>
                    <path d="M780.4,856.4L872.1,992.7" style="fill:none;stroke:black;stroke-width:0.7px;"/>
                    <path d="M777.5,850.9L885.9,979.2" style="fill:none;stroke:black;stroke-width:0.7px;"/>
                    <path d="M780.8,858.2L858.3,1002.5" style="fill:none;stroke:black;stroke-width:0.7px;"/>
                    <path d="M772.5,843.3L896.9,964.7" style="fill:none;stroke:black;stroke-width:0.7px;"/>
                    <path d="M755.9,857.7L696.4,964.6" style="fill:none;stroke:black;stroke-width:0.7px;"/>
                    <path d="M756.3,854.6L690.4,954" style="fill:none;stroke:black;stroke-width:0.7px;"/>
                    <path d="M756.9,852.6L684.1,938.7" style="fill:none;stroke:black;stroke-width:0.7px;"/>
                    <path d="M761.4,845.3L680.6,925" style="fill:none;stroke:black;stroke-width:0.7px;"/>
                </g>
            </g>
        </g>
    </g>
</svg>
